# xmcd
#
# Track frame offsets:
# 150
# 17675
# 32244
# 48362
# 67687
# 89334
# 102676
# 120974
# 137944
# 149973
# 167788
#
# Disc length: 2477 seconds
#
#
# Revision: 0
# Processed by: cddbd v1.5PL3 Copyright (c) Steve Scherf et al.
# Submitted via: FreeRIP 2.53 
#
DISCID=9c09ab0b
DTITLE=Broks, Garth - In Pieces
DYEAR=1900
DGENRE=Country
TTITLE0=Standing Outside The Fire
TTITLE1=The Night I Called The Old Man Out
TTITLE2=American Honky-Tonk Bar Association
TTITLE3=One Night A Day
TTITLE4=Ain't Goin' Down Til' The Sun Comes Up
TTITLE5=Annoymous
TTITLE6=Kickin' and Screamin'
TTITLE7=The Red Strokes
TTITLE8=Callin' Baton Rouge
TTITLE9=The Night Will Only Know
TTITLE10=The Cowboy Song
EXTD=
EXTT0=
EXTT1=
EXTT2=
EXTT3=
EXTT4=
EXTT5=
EXTT6=
EXTT7=
EXTT8=
EXTT9=
EXTT10=
PLAYORDER=
